<svg id="Capa_1" data-name="Capa 1" xmlns="http://www.w3.org/2000/svg" viewBox="0 0 813.28 127.07"><defs><style>.cls-1{fill:#555;}.cls-2{fill:#ffd03b;}</style></defs><title>html-artisan-logo-large</title><path class="cls-1" d="M45.82,93.09v14L2.67,88.88V77.1L45.82,58.75v14L17.22,83Z" transform="translate(-2.67 -3.7)"/><path class="cls-1" d="M102.92,114V82.73H73.6V114H58.53V41.12H73.6V70.64h29.32V41.12h15V114Z" transform="translate(-2.67 -3.7)"/><path class="cls-1" d="M162.06,53.31V114H147V53.31H125.06V41.12h59.35v12.2Z" transform="translate(-2.67 -3.7)"/><path class="cls-1" d="M231.25,94l18.55-52.89h19.78V114H254.52V94.11L256,59.67,236.28,114H226L206.34,59.77l1.54,34.34V114H192.81V41.12h19.68Z" transform="translate(-2.67 -3.7)"/><path class="cls-1" d="M329.45,101.9V114H282.5V41.12h15.07V101.9Z" transform="translate(-2.67 -3.7)"/><path class="cls-1" d="M772.38,72.79V58.85L815.95,77.1V88.88l-43.57,18.35v-14l29-10.25Z" transform="translate(-2.67 -3.7)"/><path class="cls-2" d="M388.32,114l11.32-53.39a64.11,64.11,0,0,0-10.22-3.68,60.91,60.91,0,0,0-9.49-1.62q-4.12,9-7.65,18.46t-6,18.31q-2.5,8.82-4,16.54a72.65,72.65,0,0,0-1.47,13.31,19.11,19.11,0,0,0,.66,6,12.22,12.22,0,0,0,1.4,2.79q-2.94,0-6.4-.29a17.54,17.54,0,0,1-6.4-1.76,12.34,12.34,0,0,1-4.93-4.63q-2-3.16-2-8.9a53.9,53.9,0,0,1,1.54-11.77,123,123,0,0,1,4.41-14.63Q352,80.91,356,72.31t8.82-17a39.43,39.43,0,0,0-11.32,2.11,9.51,9.51,0,0,0-5.88,5.47c.39,0,.81.49,1.25,1.46a7.32,7.32,0,0,1,.66,3.06,4.71,4.71,0,0,1-2.43,4.16,10.67,10.67,0,0,1-5.81,1.53A10,10,0,0,1,334.79,71q-2.65-2.13-2.65-6.4a12.12,12.12,0,0,1,2.28-7,21.1,21.1,0,0,1,6.25-5.81,33,33,0,0,1,9.41-3.9,47.23,47.23,0,0,1,11.77-1.4q3.23,0,7.94.44A190.81,190.81,0,0,1,381.63,30.3,113.26,113.26,0,0,1,394.5,16.52a63.07,63.07,0,0,1,13.38-9.38A29.32,29.32,0,0,1,421.27,3.7a41.41,41.41,0,0,1,5.44.44,21.64,21.64,0,0,1,5.88,1.62L409.5,114ZM409.5,14.14q-6.62,3.52-13.46,13a158.22,158.22,0,0,0-13,21.77q4.56.88,9.12,2.13A75.08,75.08,0,0,1,401,54Z" transform="translate(-2.67 -3.7)"/><path class="cls-2" d="M460.24,40.46l-2.06,9.27a56.38,56.38,0,0,1,8.9-7.06,16.87,16.87,0,0,1,9-2.94q5,0,7.57,3.38a12.32,12.32,0,0,1,2.57,7.65,11.64,11.64,0,0,1-.66,3.82,10.59,10.59,0,0,1-2,3.46,10,10,0,0,1-3.31,2.5,10.54,10.54,0,0,1-4.63,1q-3.09,0-4.19-1.47a9,9,0,0,1-1.54-3.16q-.44-1.69-.81-3.16a1.83,1.83,0,0,0-2-1.47,9.59,9.59,0,0,0-5.29,1.62,44.15,44.15,0,0,0-5.44,4.27L444.65,114H423.47l15.59-73.53Z" transform="translate(-2.67 -3.7)"/><path class="cls-2" d="M520.54,17.23l-5,23.24h8.82l-1.18,5.88h-8.82l-9.41,44.12a20.57,20.57,0,0,0-.59,4.71q0,3.09,1.47,4.27a7.24,7.24,0,0,0,4.56,1.18,11.1,11.1,0,0,0,7.94-3.68,21.15,21.15,0,0,0,5.29-9.27h6.18A50.69,50.69,0,0,1,522.6,102a36.67,36.67,0,0,1-8.38,8.24A24.32,24.32,0,0,1,505.9,114a33.52,33.52,0,0,1-7,.88,15.91,15.91,0,0,1-11.18-4.19q-4.56-4.19-4.56-13.46a47.43,47.43,0,0,1,1.18-9.56l8.82-41.33h-4.85l1.18-5.88h4.85l4.41-20.3Z" transform="translate(-2.67 -3.7)"/><path class="cls-2" d="M554.8,40.46l-10.59,50a20.57,20.57,0,0,0-.59,4.71q0,3.09,1.47,4.27a7.24,7.24,0,0,0,4.56,1.18,11.1,11.1,0,0,0,7.94-3.68,21.15,21.15,0,0,0,5.29-9.27h6.18A50.69,50.69,0,0,1,561.86,102a36.67,36.67,0,0,1-8.38,8.24,24.32,24.32,0,0,1-8.31,3.75,33.52,33.52,0,0,1-7,.88A15.91,15.91,0,0,1,527,110.69q-4.56-4.19-4.56-13.46a47.43,47.43,0,0,1,1.18-9.56l10-47.21ZM536.57,20.9A11.45,11.45,0,0,1,540,12.6a11.09,11.09,0,0,1,8.24-3.46,11.34,11.34,0,0,1,8.31,3.46A11.34,11.34,0,0,1,560,20.9a11.09,11.09,0,0,1-3.46,8.24,11.45,11.45,0,0,1-8.31,3.38A11.55,11.55,0,0,1,536.57,20.9Z" transform="translate(-2.67 -3.7)"/><path class="cls-2" d="M625.25,87.67a77.48,77.48,0,0,1-11.54,11,102.18,102.18,0,0,1-11,7.35,22.63,22.63,0,0,1-5.15,4.12,35.58,35.58,0,0,1-5.88,2.72,31.64,31.64,0,0,1-6.18,1.54,41.68,41.68,0,0,1-5.88.44,24.91,24.91,0,0,1-9.63-1.69,20.48,20.48,0,0,1-6.69-4.34,16.58,16.58,0,0,1-3.9-6,19.42,19.42,0,0,1-1.25-6.76,15.31,15.31,0,0,1,2.35-8.68,13.76,13.76,0,0,1,5.44-5,180.07,180.07,0,0,0,10.44-21.84q4.26-10.81,7.65-21.69l21.77-2.94Q606.42,50.17,607,59t1,14.34q.44,5.52.74,9t.29,7.13a23.34,23.34,0,0,1-.59,5.59,70.62,70.62,0,0,0,10.59-7.35Zm-48.83,0a7.89,7.89,0,0,1-1.76,4.93A5.65,5.65,0,0,1,570,94.88a7.15,7.15,0,0,1-2.28-.37A2.88,2.88,0,0,1,566,93q0,5.15,2.06,7.72t6.91,2.57a17.36,17.36,0,0,0,4.71-.66,10,10,0,0,0,4.12-2.28,11.86,11.86,0,0,0,2.87-4.26,16.83,16.83,0,0,0,1.1-6.47q0-2.79-.22-5.44t-.59-6.32q-.37-3.67-.88-9.12t-1.1-14a122.3,122.3,0,0,1-5.22,14q-3,6.77-6.69,13.82a6.94,6.94,0,0,1,2.43,2A5.06,5.06,0,0,1,576.42,87.67Z" transform="translate(-2.67 -3.7)"/><path class="cls-2" d="M689.81,40.46l-10.74,50a20.52,20.52,0,0,0-.59,4.71q0,3.09,1.47,4.27a7.24,7.24,0,0,0,4.56,1.18,9.12,9.12,0,0,0,7.28-3.68,25.72,25.72,0,0,0,4.63-9.27h6.18a52.39,52.39,0,0,1-7,14.19,33.75,33.75,0,0,1-7.94,7.94,21.48,21.48,0,0,1-7.87,3.46A36.19,36.19,0,0,1,673,114a14.44,14.44,0,0,1-9.78-3.24q-3.75-3.23-4.63-9.56a42.42,42.42,0,0,1-3.82,5,28,28,0,0,1-4.93,4.41,25.42,25.42,0,0,1-6,3.09,21,21,0,0,1-7.21,1.18,21.28,21.28,0,0,1-7.28-1.25,16.9,16.9,0,0,1-6.25-4,19.4,19.4,0,0,1-4.41-7.28,33,33,0,0,1-1.62-11.1,60.86,60.86,0,0,1,1-10.74A70.78,70.78,0,0,1,621.28,69a66.31,66.31,0,0,1,5.15-11,41.84,41.84,0,0,1,7.35-9.34,35.41,35.41,0,0,1,9.49-6.47A27.4,27.4,0,0,1,655,39.73a34.08,34.08,0,0,1,3.75.22,11.43,11.43,0,0,1,3.68,1,8.49,8.49,0,0,1,2.94,2.35,8.75,8.75,0,0,1,1.69,4l1.47-6.91Zm-30.15,8.38q-4.71,0-8.53,4.34a38.68,38.68,0,0,0-6.47,10.59A71.69,71.69,0,0,0,640.54,77a60,60,0,0,0-1.47,12.13,20.46,20.46,0,0,0,.81,6.54,9,9,0,0,0,1.91,3.38,4.42,4.42,0,0,0,2.35,1.32,13.25,13.25,0,0,0,2.28.22,8.61,8.61,0,0,0,3.46-.81,13.23,13.23,0,0,0,3.6-2.43,15.46,15.46,0,0,0,3.09-4,22,22,0,0,0,2.06-5.66l7.06-33.24a4.63,4.63,0,0,0-.37-1.54,7.66,7.66,0,0,0-1-1.84,6.06,6.06,0,0,0-1.76-1.54A5.52,5.52,0,0,0,659.66,48.85Z" transform="translate(-2.67 -3.7)"/><path class="cls-2" d="M738.78,60.76q0-7.5-5.29-7.5-4,0-6.91,4A29.8,29.8,0,0,0,722,66.79L712,114H690.84l15.59-73.53h21.18L726,48.11q4.71-5.29,9.26-6.77a26.46,26.46,0,0,1,7.94-1.47,17.54,17.54,0,0,1,11.69,3.9q4.63,3.9,4.63,12.72a49,49,0,0,1-1.1,9.78q-1.1,5.37-2.43,10.59t-2.43,9.85a34.52,34.52,0,0,0-1.1,7.72,7.36,7.36,0,0,0,1.25,4.49q1.25,1.69,4.63,1.69t4.85-.88q-1,7.94-5.66,11.54a16.67,16.67,0,0,1-10.52,3.6,16.23,16.23,0,0,1-7.13-1.4,11.88,11.88,0,0,1-4.56-3.75,15.25,15.25,0,0,1-2.43-5.37,25.56,25.56,0,0,1-.74-6.1,44.88,44.88,0,0,1,1-8.75q1-5.07,2.28-10.22t2.28-10.07A42.43,42.43,0,0,0,738.78,60.76Z" transform="translate(-2.67 -3.7)"/></svg>