<svg id="Capa_1" data-name="Capa 1" xmlns="http://www.w3.org/2000/svg" viewBox="0 0 214.61 127.07"><defs><style>.cls-1{fill:#555;}.cls-2{fill:#ffd03b;}</style></defs><title>html-artisan-logo-small</title><path class="cls-1" d="M52.7,90V106.1l-49.63-21V71.56L52.7,50.46V66.61L19.81,78.4Z" transform="translate(-3.06 -3.7)"/><path class="cls-1" d="M167.57,66.61v-16l50.1,21V85.12l-50.1,21.1V90.07l33.36-11.79Z" transform="translate(-3.06 -3.7)"/><path class="cls-2" d="M120.26,114l11.32-53.39a64.11,64.11,0,0,0-10.22-3.68,60.91,60.91,0,0,0-9.49-1.62q-4.12,9-7.65,18.46t-6,18.31q-2.5,8.82-4,16.54a72.65,72.65,0,0,0-1.47,13.31,19.11,19.11,0,0,0,.66,6,12.22,12.22,0,0,0,1.4,2.79q-2.94,0-6.4-.29a17.54,17.54,0,0,1-6.4-1.76,12.34,12.34,0,0,1-4.93-4.63q-2-3.16-2-8.9a53.9,53.9,0,0,1,1.54-11.77,123,123,0,0,1,4.41-14.63q2.87-7.87,6.84-16.47t8.82-17a39.43,39.43,0,0,0-11.32,2.11,9.51,9.51,0,0,0-5.88,5.47c.39,0,.81.49,1.25,1.46a7.32,7.32,0,0,1,.66,3.06A4.71,4.71,0,0,1,79,71.58a10.67,10.67,0,0,1-5.81,1.53A10,10,0,0,1,66.73,71q-2.65-2.13-2.65-6.4a12.12,12.12,0,0,1,2.28-7,21.1,21.1,0,0,1,6.25-5.81A33,33,0,0,1,82,47.89a47.23,47.23,0,0,1,11.77-1.4q3.23,0,7.94.44A190.81,190.81,0,0,1,113.57,30.3a113.26,113.26,0,0,1,12.87-13.78,63.07,63.07,0,0,1,13.38-9.38A29.32,29.32,0,0,1,153.21,3.7a41.41,41.41,0,0,1,5.44.44,21.64,21.64,0,0,1,5.88,1.62L141.44,114Zm21.18-99.86q-6.62,3.52-13.46,13a158.22,158.22,0,0,0-13,21.77q4.56.88,9.12,2.13a75.08,75.08,0,0,1,8.82,3Z" transform="translate(-3.06 -3.7)"/></svg>